<?xml version="1.0" encoding="UTF-8" standalone="no"?>
<svg width="64" height="64" viewBox="0 0 64 64" version="1.1" xmlns="http://www.w3.org/2000/svg">
<g transform="matrix(0.74298213,0,0,0.74298213,7.295844,8.0815152)" fill="#7b5743">
  <path d="m 53.5,36.5 c 2,0 4,2.5 3.5,4.5 -0.5,2 -2,3.5 -4,3.5 -2,0 -3.5,-1.5 -3.5,-3.5 0,-2 1,-4.5 4,-4.5 z"/>
  <path d="m 26.5,38.0001 c 3,-0.5 6,1.5 5.5,4 -0.5,2.5 -2.5,4 -4.5,4 -2,0 -4,-1.0001 -4.5,-3 -0.4999,-2 0.5,-4.5 3.5,-5 z"/>
  <path fill-rule="evenodd" d="M 12,8.49994 C 9.60001,10.49994 9,18.5 9,20.5 c -2,2 -3,5 -4,10 -1.81997,9.0998 6.1094,14.9451 13.9206,20.7032 C 19.281,51.4689 19.6411,51.7344 20,52 c 1.6834,1.2457 3.9892,2.6685 6.5,4 -0.5413,-0.4031 -1.5,-2.5 0,-5 0,2.7218 1.158,5.3831 3.3095,6.655 L 30.5,58 c 5,2.5 9.7214,3.5052 12,1 3.9773,1.9302 7,-1.5 8,-3 0.0823,-0.1234 0.1635,-0.2394 0.2439,-0.349 C 52.072,53.6178 52.6573,50.472 52.5,50 c 0.4818,1.2044 0.5283,2.5829 0.1398,3.7581 C 52.9105,53.5319 53.1944,53.2902 53.5,53 c 7.2482,-6.8837 9,-13.9626 9,-20 0,-6.3808 -0.4155,-6.9452 -3.5186,-11.1609 L 58.9802,21.8375 C 58.6794,21.4288 58.3534,20.9859 58,20.5 58.5,18 58.5,16 58.5,12 58.5,8 57.5,2 54,2 c -1.9816,0 -4.7153,1.98993 -6.4719,3.26864 -0.4,0.29114 -0.7499,0.54587 -1.0281,0.73132 -1.8333,-0.5 -6.9,-1.5 -12.5,-1.5 -5.6,0 -11.3333,2.33332 -13.5,3.49998 -1.8333,-0.66667 -6.1,-1.5 -8.5,0.5 z M 56,17.5 C 54.5,18 50,14.5001 49.5,12 49,9.49997 52,5.50007 54.5,5.50002 57,5.49998 57.5,17 56,17.5 Z m -34.5,3.0001 c 1.5,-3 -4,-9.50001 -7.5,-7.5 -3.5,2 -3,12 -2,12.5 1,0.5 8,-2 9.5,-5 z M 42.5,57.5 c 2,-0.5 3.5993,-1.096 4,-3.5 0.4007,-2.4041 -1.5,-3 -4.5,-2.5 -3,0.5 -5.5,2 -4.5,4 1,2 3,2.5 5,2 z M 20.5,48 C 14.3849,47.3916 14.1505,35.4834 19,33 c 4.8495,-2.4835 7.2505,-1.5 11,1 2.114,1.4095 3.4336,4.0905 4.541,6.3404 0.8568,1.7407 1.5866,3.2234 2.459,3.6596 2,1 -0.5,-10.5 -4.5,-17.5 -4,-7 -4,-13.4999 3,-15.00004 C 42.5,9.99983 47,17 47.5,22.5 47.7225,24.948 46.8555,28.8819 46.001,32.7585 44.9358,37.5914 43.8902,42.3353 45,44 45.9365,45.4047 46.9826,42.7531 48.2924,39.4333 49.7798,35.6634 51.6071,31.0317 54,30.5 c 4.5,-1 6,3.5 6,8 C 60,43 55.5,51 50.5,48 47.3447,46.1068 45.7823,47.0013 44.1794,47.919 43.2423,48.4555 42.2913,49 41,49 39.6253,49 38.8676,48.0743 38.1211,47.1622 36.9671,45.7522 35.8397,44.3747 32.5,46.5 28.1805,49.2487 26.0735,48.8866 23.146,48.3835 22.3459,48.246 21.4846,48.0979 20.5,48 Z"/>
  <path d="M 29,59.5 C 18,54.5 12.5,49.5 8.5,45.5 5.66293,42.6628 4.8381,40.9996 4.24149,39.7965 3.99694,39.3034 3.79073,38.8876 3.5,38.5 2.5,40.5 3,44 4.5,46 2.5,46 0.603746,47.4484 0,48.5 0.302606,48.5 0.650063,48.4259 1.03365,48.3442 2.12893,48.111 3.51875,47.815 5,49 3.1866,49.1248 2.5,50 1.5,51.5 1.66667,51.3333 5,51 10.5,54 c 0.948,0.517 1.8217,1.0044 2.6467,1.4646 3.9617,2.2099 6.8013,3.7939 11.3533,5.0354 7.5,2.0454 14,2.5 15.5,1 -1.1667,0 -6.6817,-0.0372 -11,-2 z"/>
  <path d="M 53.9947,55.2962 C 54.662,54.6916 55.3332,54.0835 56,53.5 c 4,-3.5 5,-6 6,-9 1,1.5 1,3 0.5,4 1.5,-0.5 3.5,0 4,1 -2,0 -3,0.5 -4,1.5 1,0 3,0 4,1 -4.0754,0.8151 -6.1577,2.2945 -8.413,3.8968 -0.5116,0.3635 -1.0322,0.7334 -1.587,1.1032 -2.2326,1.4884 -6,4 -9.5,3.5 1.979,-0.6597 4.4594,-2.9069 6.9947,-5.2038 z"/>
</g></svg>
